HIERARCHY
ROOT Hips
{
	OFFSET 0.00000 0.00000 0.00000
	CHANNELS 6 Xposition Yposition Zposition Zrotation Yrotation Xrotation 
	JOINT LHipJoint
	{
		OFFSET 0 0 0
		CHANNELS 3 Zrotation Yrotation Xrotation
		JOINT LeftHip
		{
			OFFSET 1.56857 -1.73443 1.15205
			CHANNELS 3 Zrotation Yrotation Xrotation
			JOINT LeftKnee
			{
				OFFSET 2.39362 -6.57643 0.00000
				CHANNELS 3 Zrotation Yrotation Xrotation
				JOINT LeftAnkle
				{
					OFFSET 2.50952 -6.89485 0.00000
					CHANNELS 3 Zrotation Yrotation Xrotation
					JOINT LeftToe
					{
						OFFSET 0.17171 -0.47178 1.88682
						CHANNELS 3 Zrotation Yrotation Xrotation
						End Site
						{
							OFFSET 0.00000 -0.00000 0.98146
						}
					}
				}
			}
		}
	}
	JOINT RHipJoint
	{
		OFFSET 0 0 0
		CHANNELS 3 Zrotation Yrotation Xrotation
		JOINT RightHip
		{
			OFFSET -1.28153 -1.73443 1.15205
			CHANNELS 3 Zrotation Yrotation Xrotation
			JOINT RightKnee
			{
				OFFSET -2.26861 -6.23296 0.00000
				CHANNELS 3 Zrotation Yrotation Xrotation
				JOINT RightAnkle
				{
					OFFSET -2.54143 -6.98254 0.00000
					CHANNELS 3 Zrotation Yrotation Xrotation
					JOINT RightToe
					{
						OFFSET -0.23309 -0.64041 1.93119
						CHANNELS 3 Zrotation Yrotation Xrotation
						End Site
						{
							OFFSET -0.00000 -0.00000 1.02013
						}
					}
				}
			}
		}
	}
	JOINT lowerback
	{
		OFFSET 0 0 0
		CHANNELS 3 Zrotation Yrotation Xrotation
		JOINT Chest
		{
			OFFSET -0.07096 2.10460 -0.27878
			CHANNELS 3 Zrotation Yrotation Xrotation
			JOINT Chest2
			{
				OFFSET -0.00826 2.13662 -0.08279
				CHANNELS 3 Zrotation Yrotation Xrotation
				JOINT lowerneck
				{
					OFFSET 0 0 0
					CHANNELS 3 Zrotation Yrotation Xrotation
					JOINT Neck
					{
						OFFSET 0.03239 1.77799 0.24435
						CHANNELS 3 Zrotation Yrotation Xrotation
						JOINT Head
						{
							OFFSET 0.01026 1.74194 -0.49664
							CHANNELS 3 Zrotation Yrotation Xrotation
							End Site
							{
								OFFSET 0.00170 1.83057 -0.19653
							}
						}
					}
				}
				JOINT LeftCollar
				{
					OFFSET 0 0 0
					CHANNELS 3 Zrotation Yrotation Xrotation
					JOINT LeftShoulder
					{
						OFFSET 3.19178 1.35907 -0.31412
CHANNELS 3 Zrotation Xrotation Yrotation
						JOINT LeftElbow
						{
OFFSET 0 -4.852470 -0.000000
CHANNELS 3 Zrotation Xrotation Yrotation
							JOINT LeftWrist
							{
OFFSET 0 -3.555840 0.000000
CHANNELS 3 Zrotation Xrotation Yrotation
								JOINT lhand
								{
									OFFSET 0 0 0
CHANNELS 3 Zrotation Xrotation Yrotation
									JOINT LFingers
									{
OFFSET 0 -0.693200 0.000000
CHANNELS 3 Zrotation Xrotation Yrotation
										End Site
										{
OFFSET 0 -0.558880 0.000000
										}
									}
								}
								JOINT LThumb
								{
OFFSET 0 0.000000 0.000000
CHANNELS 3 Zrotation Xrotation Yrotation
									End Site
									{
OFFSET 0 -0.567410 0.567410
									}
								}
							}
						}
					}
				}
				JOINT RightCollar
				{
					OFFSET 0 0 0
					CHANNELS 3 Zrotation Yrotation Xrotation
					JOINT RightShoulder
					{
						OFFSET -3.28999 1.24191 -0.26899
CHANNELS 3 Zrotation Xrotation Yrotation
						JOINT RightElbow
						{
OFFSET 0 -4.644620 0.000000
CHANNELS 3 Zrotation Xrotation Yrotation
							JOINT RightWrist
							{
OFFSET 0 -3.407030 0.000000
CHANNELS 3 Zrotation Xrotation Yrotation
								JOINT rhand
								{
									OFFSET 0 0 0
CHANNELS 3 Zrotation Xrotation Yrotation
									JOINT RFingers
									{
OFFSET 0 -0.619580 0.000000
CHANNELS 3 Zrotation Xrotation Yrotation
										End Site
										{
OFFSET 0 -0.499520 0.000000
										}
									}
								}
								JOINT RThumb
								{
OFFSET 0 0.000000 0.000000
CHANNELS 3 Zrotation Xrotation Yrotation
									End Site
									{
OFFSET 0 -0.507150 0.507150
									}
								}
							}
						}
					}
				}
			}
		}
	}
}
MOTION
Frames: 11
Frame Time: 0.008333333333333333
0.222434 16.862285 -1.179227 252.225255 101.994972 250.702351 0.000000 0.000000 0.000000 -35.328696 5.712170 10.708363 0.219347 3.015118 8.320788 0.985845 -6.535500 -17.716371 0.110527 -2.141370 -5.896665 0.000000 0.000000 0.000000 4.818126 1.542146 -26.312357 -1.662501 -8.119996 23.081794 -0.399814 -2.445731 -13.091824 -0.319685 -3.634193 10.049887 -14.040714 0.964761 5.815850 -3.410724 1.482599 7.625746 4.200169 0.310359 4.690023 3.834906 1.730425 -22.332496 0.071547 1.142238 19.801022 -0.429283 0.855120 10.017216 0.000000 0.000000 0.000000 8.306357 -14.945618 -50.209508 19.535133 -30.078245 5.296371 20.801309 -10.874349 24.719328 0.000000 0.000000 0.000000 -7.125000 0.000000 0.000000 -5.293428 3.857761 -4.946601 0.000000 0.000000 0.000000 -5.876864 0.243459 39.257486 -20.336933 -31.046112 -5.704104 -12.395860 -1.066742 32.305523 0.000000 0.000000 0.000000 7.125000 0.000000 0.000000 23.306889 61.379132 -9.585832
0.466130 16.822243 -1.186088 254.061462 102.305628 253.031005 0.000000 0.000000 0.000000 -35.621407 6.147728 11.052806 0.212540 2.967926 8.189380 1.008302 -7.380267 -17.942136 0.137543 -2.390465 -6.586154 0.000000 0.000000 0.000000 4.259517 1.868970 -26.183995 -1.093320 -6.633990 18.639504 -0.411054 -1.675678 -12.839830 -0.185055 -2.741744 7.562323 -14.524688 0.752956 5.077348 -3.211168 1.331080 7.744102 4.688819 0.159849 5.272184 3.514900 1.680359 -22.615088 0.692817 1.013393 19.364627 -0.176408 0.839489 9.905057 0.000000 0.000000 0.000000 8.052981 -15.406303 -50.619134 19.591343 -30.146840 5.324615 21.002963 -11.141855 24.856621 0.000000 0.000000 0.000000 -7.125000 0.000000 0.000000 -5.183849 3.680744 -4.860650 0.000000 0.000000 0.000000 -6.313096 0.097364 38.854246 -20.254662 -30.947914 -5.661745 -12.486047 -1.198786 31.893586 0.000000 0.000000 0.000000 7.125000 0.000000 0.000000 22.850640 61.026860 -9.195301
0.712991 16.771769 -1.189695 256.386342 102.521751 255.841078 0.000000 0.000000 0.000000 -35.966312 6.147353 11.511142 0.214969 2.984906 8.236689 1.063523 -8.126574 -18.464486 0.151834 -2.510609 -6.918965 0.000000 0.000000 0.000000 3.595181 2.446882 -26.034282 -0.696127 -5.321766 14.831402 -0.414616 -0.536255 -12.372345 -0.044863 -1.366943 3.758936 -14.555110 0.671099 4.963769 -3.272535 1.201455 7.469566 4.643797 0.115937 5.058092 3.701486 1.514269 -22.543207 1.254799 0.596305 19.104239 -0.071851 0.727499 9.795260 0.000000 0.000000 0.000000 8.150825 -15.265547 -51.307653 19.566649 -30.116682 5.312194 21.131111 -11.135302 25.206277 0.000000 0.000000 0.000000 -7.125000 0.000000 0.000000 -5.141984 3.296123 -4.857757 0.000000 0.000000 0.000000 -6.040547 0.699322 37.905390 -20.148965 -30.821389 -5.607489 -12.577446 -1.208073 31.962197 0.000000 0.000000 0.000000 7.125000 0.000000 0.000000 22.813622 61.111502 -9.225547
0.965834 16.719044 -1.201762 257.891613 102.865077 257.770162 0.000000 0.000000 0.000000 -36.429189 6.301436 11.990563 0.214777 2.983333 8.232380 1.087720 -9.056012 -18.750414 0.116218 -2.197642 -6.052154 0.000000 0.000000 0.000000 2.964647 2.507047 -26.159215 -0.448440 -4.291341 11.898531 -0.332369 0.696715 -10.674875 -0.181590 -2.707588 7.467980 -14.673167 0.576090 4.760656 -3.285639 1.082592 7.293386 4.698067 0.058280 5.003708 3.582702 1.429855 -22.373287 2.039021 0.357958 18.526553 0.183724 0.693408 9.559015 0.000000 0.000000 0.000000 7.978571 -15.193742 -51.536750 19.499468 -30.034608 5.278567 20.993882 -10.823758 25.316186 0.000000 0.000000 0.000000 -7.125000 0.000000 0.000000 -5.237015 3.206675 -4.956942 0.000000 0.000000 0.000000 -5.954584 1.208110 37.037429 -20.194909 -30.876426 -5.631030 -12.363411 -1.233664 32.052989 0.000000 0.000000 0.000000 7.125000 0.000000 0.000000 23.119683 61.142047 -9.374123
1.225438 16.664682 -1.204924 258.694619 103.273257 258.944621 0.000000 0.000000 0.000000 -36.890374 6.457823 12.398867 0.234622 3.117531 8.606135 1.131458 -9.742229 -19.187338 0.117898 -2.213695 -6.096554 0.000000 0.000000 0.000000 2.382804 2.622887 -26.501503 -0.331173 -3.698329 10.229525 -0.335878 2.530292 -10.369880 -0.254170 -3.242923 8.955870 -14.989198 0.505320 4.415023 -3.199300 1.038105 7.259712 4.965511 0.004885 5.177978 3.442089 1.397400 -22.683659 2.621966 0.216790 18.249401 0.390664 0.684647 9.516467 0.000000 0.000000 0.000000 7.567695 -15.262613 -51.584584 19.371242 -29.877309 5.214526 21.267273 -10.663522 25.316539 0.000000 0.000000 0.000000 -7.125000 0.000000 0.000000 -5.070781 3.157729 -4.802900 0.000000 0.000000 0.000000 -5.873116 1.349383 35.787767 -20.041165 -30.691928 -5.552374 -12.119820 -0.745579 31.710729 0.000000 0.000000 0.000000 7.125000 0.000000 0.000000 23.081438 60.771830 -9.155066
1.488456 16.605520 -1.199777 260.403578 103.653210 261.007810 0.000000 0.000000 0.000000 -37.153457 6.785606 12.724052 0.261117 3.287482 9.080157 1.136823 -10.641121 -19.357371 0.141658 -2.424957 -6.681550 0.000000 0.000000 0.000000 1.747508 2.837703 -26.966807 -0.312857 -3.595567 9.941550 -0.342139 3.960221 -10.401048 -0.258405 -3.270363 9.032471 -15.225883 0.506898 4.066542 -3.172830 1.099022 7.228601 5.125947 0.011896 5.335965 3.568785 1.195315 -22.857826 3.136601 -0.214715 17.896470 0.486344 0.551077 9.426158 0.000000 0.000000 0.000000 7.273770 -15.369111 -52.047579 19.053943 -29.485651 5.057435 21.388179 -10.365385 25.384304 0.000000 0.000000 0.000000 -7.125000 0.000000 0.000000 -5.004621 3.065839 -4.748182 0.000000 0.000000 0.000000 -5.699736 1.556196 34.503536 -19.795434 -30.395038 -5.427475 -12.196236 -0.517726 31.559217 0.000000 0.000000 0.000000 7.125000 0.000000 0.000000 22.870273 60.652675 -8.999513
1.757819 16.548205 -1.195797 261.272317 103.614169 262.087720 0.000000 0.000000 0.000000 -37.112931 6.718341 13.429666 0.283714 3.425221 9.464915 1.176867 -10.831838 -19.700882 0.227047 -3.065434 -8.461145 0.000000 0.000000 0.000000 1.846805 3.016669 -27.315491 -0.347288 -3.786051 10.475588 -0.282459 4.149937 -9.462644 -0.141451 -2.389226 6.584248 -15.039887 0.469875 3.964033 -3.024989 1.046584 7.173097 5.184158 -0.012233 5.335461 3.240555 1.107643 -22.671339 4.108156 -0.396938 17.183485 0.844047 0.542519 9.151271 0.000000 0.000000 0.000000 6.819984 -15.096457 -51.693079 18.805402 -29.176162 4.935628 21.098940 -9.741361 25.058601 0.000000 0.000000 0.000000 -7.125000 0.000000 0.000000 -5.146168 3.454692 -4.846603 0.000000 0.000000 0.000000 -5.573675 1.770311 33.484020 -19.380439 -29.888449 -5.219137 -12.093254 -0.350686 31.057033 0.000000 0.000000 0.000000 7.125000 0.000000 0.000000 22.559500 60.169978 -8.608511
2.029783 16.492291 -1.186805 261.864768 103.697367 262.749733 0.000000 0.000000 0.000000 -37.185294 6.680705 14.154530 0.321065 3.641708 10.070984 1.244203 -11.020027 -20.246139 0.296765 -3.502335 -9.680691 0.000000 0.000000 0.000000 1.595654 3.880053 -27.226445 -0.460639 -4.350621 12.065636 -0.210295 3.559540 -8.153545 -0.268730 -3.304193 9.129522 -15.080671 0.397253 3.923711 -2.845594 0.949731 7.213241 5.398091 -0.078091 5.420941 3.797991 1.098882 -23.570327 3.791806 -0.600043 17.688140 0.626538 0.472390 9.484879 0.000000 0.000000 0.000000 6.202169 -14.853972 -50.866333 18.368447 -28.626068 4.724591 21.546843 -9.381106 25.422471 0.000000 0.000000 0.000000 -7.125000 0.000000 0.000000 -4.912399 2.997700 -4.666195 0.000000 0.000000 0.000000 -5.721725 1.706987 33.044917 -18.816295 -29.189043 -4.941267 -11.651909 -0.502342 31.125431 0.000000 0.000000 0.000000 7.125000 0.000000 0.000000 23.076766 60.128922 -8.796245
2.304337 16.440961 -1.181823 262.679199 103.633558 263.582878 0.000000 0.000000 0.000000 -37.177959 6.533158 14.978677 0.367017 3.890714 10.769465 1.295895 -11.156813 -20.655356 0.398735 -4.046810 -11.209387 0.000000 0.000000 0.000000 1.465107 4.721089 -27.233947 -0.597803 -4.946890 13.757705 -0.113291 1.552945 -6.001130 -0.578567 -4.837068 13.450963 -14.827007 0.365268 4.191474 -2.686585 0.831221 7.123013 5.428082 -0.113640 5.182318 3.957422 1.060988 -23.902654 4.049514 -0.777460 17.595274 0.667217 0.435601 9.514068 0.000000 0.000000 0.000000 5.618995 -14.361779 -50.107236 17.977834 -28.128604 4.538826 21.160231 -8.507419 25.085325 0.000000 0.000000 0.000000 -7.125000 0.000000 0.000000 -5.111601 3.416242 -4.817412 0.000000 0.000000 0.000000 -5.756596 1.650258 32.385296 -18.093462 -28.276344 -4.593629 -11.286691 0.002239 31.647829 0.000000 0.000000 0.000000 7.125000 0.000000 0.000000 23.898012 60.516587 -9.352720
2.587060 16.409222 -1.176094 263.923790 103.121963 264.669541 0.000000 0.000000 0.000000 -36.771530 6.117050 16.107261 0.419646 4.156603 11.517963 1.348437 -10.999548 -21.021391 0.542187 -4.716035 -13.100774 0.000000 0.000000 0.000000 1.732342 5.536873 -27.016714 -0.736994 -5.481952 15.289053 -0.020312 -1.876903 -4.116518 -0.997832 -6.356384 17.822219 -14.134499 0.276525 4.344670 -2.375248 0.697300 7.333285 5.379938 -0.175396 5.330869 4.092008 1.039064 -24.084054 4.334322 -0.898785 17.037637 0.724330 0.410565 9.352960 0.000000 0.000000 0.000000 4.917346 -14.082176 -49.093726 17.530501 -27.551595 4.330021 21.459912 -7.905772 25.114943 0.000000 0.000000 0.000000 -7.125000 0.000000 0.000000 -4.932029 3.332456 -4.654458 0.000000 0.000000 0.000000 -5.793705 1.344667 31.714009 -17.532033 -27.553065 -4.330956 -11.394241 0.574549 31.946940 0.000000 0.000000 0.000000 7.125000 0.000000 0.000000 24.044657 60.812233 -9.584009
2.857209 16.392169 -1.162300 263.601195 102.048402 264.285020 0.000000 0.000000 0.000000 -35.707809 5.715630 16.849674 0.502969 4.546324 12.619050 1.391646 -10.697830 -21.298904 0.626643 -5.065274 -14.094900 0.000000 0.000000 0.000000 2.766225 6.806269 -27.319608 -0.988919 -6.328321 17.740241 0.031780 -4.333646 -4.738433 -0.849132 -5.876951 16.427831 -12.952389 0.205835 4.619085 -1.874623 0.543469 7.461290 5.261950 -0.218019 5.305284 4.173745 1.121098 -24.136396 4.538805 -0.834912 16.558951 0.788410 0.457486 9.196212 0.000000 0.000000 0.000000 4.286398 -13.701090 -48.131515 17.049130 -26.922532 4.109640 21.755760 -8.063957 25.180313 0.000000 0.000000 0.000000 -7.125000 0.000000 0.000000 -4.758956 3.211466 -4.500659 0.000000 0.000000 0.000000 -5.873331 0.768318 30.928364 -16.701177 -26.462029 -3.953293 -11.194318 1.422037 31.884853 0.000000 0.000000 0.000000 7.125000 0.000000 0.000000 24.199361 60.708304 -9.589848
